<?xml version="1.0" encoding="utf-8"?><!DOCTYPE svg PUBLIC "-//W3C//DTD SVG 1.1//EN" "http://www.w3.org/Graphics/SVG/1.1/DTD/svg11.dtd"><svg version="1.1" id="Layer_1" xmlns="http://www.w3.org/2000/svg" x="0px" y="0px" width="825px" height="825px" viewBox="0 0 825 825" enable-background="new 0 0 825 825" xml:space="preserve"><g><path fill="#BF9FC6" d="M412.363,824.722c227.753,0,412.429-184.685,412.429-412.433C824.792,184.531,640.116,0,412.363,0
		S0,184.531,0,412.289C0,640.037,184.61,824.722,412.363,824.722"/><path fill="#FFFFFF" d="M315.935,447.448c4.354-3.029,33.509-6.944,40.999-6.944c42.775,0,85.979-31.233,100.406-70.667
		c3.836-10.313,13.793-24.806,11.716-23.423c-30.988,19.397-76.213,18.896-111.042,33.625c-5.359,2.392-10.458,6.183-15.188,10.838
		c4.101-5.156,8.19-9.94,10.209-11.84c30.608-28.969,38.922-80.496,20.907-118.416c-4.784-10.077-8.186-27.078-8.686-24.681
		c-8.062,34.899-40.817,65.13-55.049,99.135c-8.947,21.54,2.268,58.455,17.762,75.451
		C320.914,422.878,316.254,436.473,315.935,447.448"/><path fill="#FFFFFF" d="M405.121,632.238c-101.527,0-188.703-63.483-213.575-149.653c20.274,4.912,45.216,8.31,70.92,9.82
		c89.431,5.545,180.637-7.557,34.701-15.366c-190.213-10.201,28.658-85.781,12.221-82.516
		c-44.467,8.703-107.135,17.021-143.925,38.673c-10.578,6.307-16.492,12.229-18.511,17.638l-3.282,0.261
		c10.52,123.949,125.34,221.069,261.452,221.069c135.607,0,247.845-93.089,261.075-216.414l-41.07-4.035
		C614.102,554.643,519.564,632.238,405.121,632.238"/><path fill="#FFFFFF" d="M411.046,495.298c-111.042,50.389,68.966,153.696,72.807,47.873l202.438-301.445l-38.553-26.701
		L411.046,495.298z"/><path fill="#FFFFFF" d="M267.564,370.095c7.499,0,36.6,4.035,40.999,7.048c-0.625-22.794-19.703-57.938-42.067-67.394
		c-34.891-14.729-79.991-14.228-110.98-33.761c-2.148-1.254,7.813,13.23,11.592,23.568
		C181.654,338.846,224.801,370.095,267.564,370.095"/></g></svg>